# xmcd CD database file
#
# Track frame offsets:
#	150
#	23601
#	39818
#	64155
#	80935
#	97538
#	111832
#	130490
#	148258
#	169018
#
# Disc length: 2466 seconds
#
# Revision: 1
# Processed by: cddbd v1.5.1PL0 Copyright (c) Steve Scherf et al.
# Submitted via: jetAudio 5
#
DISCID=7f09a00a
DTITLE=Diversos - 33a. Califórnia da Canção Nativa do Rio Grande do Sul
DYEAR=1900
DGENRE=
TTITLE0=Diário de Fronteiriço
TTITLE1=Os Afilhados do Vento
TTITLE2=Muchas Gracias
TTITLE3=O Passado Não Calou
TTITLE4=Nzinga M'Bandi
TTITLE5=Trancando o Pé
TTITLE6=Gangorra
TTITLE7=Costeio de Domador
TTITLE8=Imagens
TTITLE9=Milonga de Osório Mendes
EXTD=Música Nativista do Rio Grande do Sul - Brasil
EXTT0=Música Nativista do Rio Grande do Sul - Brasil
EXTT1=Música Nativista do Rio Grande do Sul - Brasil
EXTT2=Música Nativista do Rio Grande do Sul - Brasil
EXTT3=Música Nativista do Rio Grande do Sul - Brasil
EXTT4=Música Nativista do Rio Grande do Sul - Brasil
EXTT5=Música Nativista do Rio Grande do Sul - Brasil
EXTT6=Música Nativista do Rio Grande do Sul - Brasil
EXTT7=Música Nativista do Rio Grande do Sul - Brasil
EXTT8=Música Nativista do Rio Grande do Sul - Brasil
EXTT9=Música Nativista do Rio Grande do Sul - Brasil
PLAYORDER=
